<svg width="338" height="37" viewBox="0 0 338 37" fill="none" xmlns="http://www.w3.org/2000/svg">
<path d="M9.54688 2.5625C8.35938 2.60938 7.25 2.70312 6.21875 2.84375C6.20312 3.84375 6.19531 4.98438 6.19531 6.26562C6.19531 7.53125 6.19531 8.89062 6.19531 10.3438C6.21094 11.7812 6.22656 13.2734 6.24219 14.8203C6.25781 16.3516 6.27344 17.8828 6.28906 19.4141C6.32031 20.9297 6.34375 22.4062 6.35938 23.8438C6.39062 25.2812 6.42188 26.625 6.45312 27.875C6.5 30.7656 6.52344 32.6484 6.52344 33.5234C7.38281 33.6172 8.39062 33.7109 9.54688 33.8047V2.5625ZM13.3438 20.75C13.3438 20.75 12.8906 20.7656 11.9844 20.7969V33.8984H13.0859C18.3828 33.8984 21.875 32.7422 23.5625 30.4297C24.2031 29.5703 24.5234 28.5781 24.5234 27.4531C24.5234 26.3125 24.3359 25.3984 23.9609 24.7109C23.6016 24.0234 23.1172 23.4453 22.5078 22.9766C21.8984 22.4922 21.1953 22.1094 20.3984 21.8281C19.6172 21.5312 18.8125 21.3047 17.9844 21.1484C16.5781 20.8828 15.0312 20.75 13.3438 20.75ZM14.9141 18.2422C23.5547 18.2422 27.875 15.6719 27.875 10.5312C27.875 8.48438 26.9219 6.78125 25.0156 5.42188C22.625 3.73438 19.3281 2.77344 15.125 2.53906C13.9688 2.47656 12.9219 2.46875 11.9844 2.51562V18.2422H14.9141ZM3.73438 3.21875L1.29688 3.80469C0.9375 3.80469 0.632812 3.67969 0.382812 3.42969C0.148438 3.16406 0.03125 2.89062 0.03125 2.60938C0.03125 2 0.320312 1.57812 0.898438 1.34375C3.94531 0.484375 7.53125 0.0546875 11.6562 0.0546875C16.4219 0.0546875 20.4531 0.703125 23.75 2C26.4531 3.0625 28.3594 4.625 29.4688 6.6875C30.0469 7.78125 30.3359 9.00781 30.3359 10.3672C30.3359 11.7266 30.1172 12.9297 29.6797 13.9766C29.2578 15.0078 28.6719 15.9219 27.9219 16.7188C26.3906 18.3125 24.375 19.3203 21.875 19.7422C24.2969 20.6172 25.8906 22.2656 26.6562 24.6875C26.8906 25.4531 27.0078 26.3594 27.0078 27.4062C27.0078 28.4531 26.8359 29.4297 26.4922 30.3359C26.1484 31.2266 25.6562 32.0078 25.0156 32.6797C24.3906 33.3359 23.6406 33.8906 22.7656 34.3438C21.8906 34.7812 20.9297 35.1406 19.8828 35.4219C17.8984 35.9375 15.5391 36.2422 12.8047 36.3359C9.36719 36.3672 6.32812 36.0859 3.6875 35.4922C2.14062 35.1484 1.14844 34.8281 0.710938 34.5312C0.257812 34.3125 0.03125 33.9922 0.03125 33.5703C0.03125 33.1328 0.164062 32.7969 0.429688 32.5625C0.710938 32.3281 0.953125 32.2109 1.15625 32.2109C1.4375 32.2109 1.625 32.2344 1.71875 32.2812C2.23438 32.5312 3 32.7812 4.01562 33.0312C4 32.125 3.98438 30.9453 3.96875 29.4922C3.95312 28.0391 3.92969 26.4297 3.89844 24.6641C3.88281 22.8828 3.85938 21.0156 3.82812 19.0625C3.8125 17.0938 3.79688 15.1562 3.78125 13.25C3.76562 11.3438 3.75 9.52344 3.73438 7.78906C3.71875 6.05469 3.71875 4.53125 3.73438 3.21875ZM42.125 13.8828C39.3281 14.9609 37.4844 16.9844 36.5938 19.9531C36.2812 20.9844 36.125 22.1484 36.125 23.4453C36.125 24.7422 36.2734 25.9062 36.5703 26.9375C36.8672 27.9688 37.2656 28.875 37.7656 29.6562C38.7344 31.1094 40.0781 32.1875 41.7969 32.8906C40.2344 30.7188 39.4531 27.5312 39.4531 23.3281C39.4531 19.125 40.3438 15.9766 42.125 13.8828ZM54.0547 30.3359C54.7891 29.3984 55.3438 28.3281 55.7188 27.125C56.1094 25.9219 56.3047 24.8125 56.3047 23.7969C56.3047 22.7812 56.2188 21.8828 56.0469 21.1016C55.875 20.3203 55.625 19.5625 55.2969 18.8281C54.9688 18.0938 54.5703 17.4062 54.1016 16.7656C53.6328 16.125 53.1094 15.5625 52.5312 15.0781C51.2656 14.0625 49.8828 13.5547 48.3828 13.5547C45.3516 13.5547 43.375 15.3359 42.4531 18.8984C42.1094 20.2109 41.9375 21.4297 41.9375 22.5547C41.9375 23.6641 41.9688 24.6094 42.0312 25.3906C42.0938 26.1562 42.2031 26.9219 42.3594 27.6875C42.5156 28.4375 42.7266 29.1641 42.9922 29.8672C43.2578 30.5703 43.6016 31.1875 44.0234 31.7188C44.9453 32.875 46.125 33.4531 47.5625 33.4531C49.0156 33.4531 50.2734 33.1719 51.3359 32.6094C52.4141 32.0312 53.3203 31.2734 54.0547 30.3359ZM58.7422 23.5391C58.7422 25.3359 58.4062 27.0156 57.7344 28.5781C57.0625 30.1406 56.1562 31.4844 55.0156 32.6094C52.5938 34.9688 49.6562 36.1484 46.2031 36.1484C42.4062 36.1484 39.3672 34.9922 37.0859 32.6797C34.8203 30.3828 33.6875 27.2969 33.6875 23.4219C33.6875 19.75 34.8906 16.7031 37.2969 14.2812C39.6719 11.875 42.6406 10.6719 46.2031 10.6719C49.8281 10.6719 52.8438 11.9375 55.25 14.4688C57.5781 16.9062 58.7422 19.9297 58.7422 23.5391ZM83.4922 29.8203C83.7109 29.2422 83.8203 28.6875 83.8203 28.1562C83.8203 27.625 83.6875 27.1172 83.4219 26.6328C83.1719 26.1484 82.8359 25.7344 82.4141 25.3906C81.9922 25.0312 81.5078 24.7344 80.9609 24.5C80.4141 24.25 79.8516 24.0391 79.2734 23.8672C78.6953 23.6953 78.125 23.5547 77.5625 23.4453C77 23.3203 76.4453 23.1953 75.8984 23.0703C75.3672 22.9453 74.7578 22.8125 74.0703 22.6719C73.3984 22.5312 72.7188 22.375 72.0312 22.2031C71.3594 22.0156 70.7031 21.7891 70.0625 21.5234C69.4375 21.2578 68.8672 20.9375 68.3516 20.5625C67.2266 19.7656 66.5312 18.7188 66.2656 17.4219C65.875 18.2656 65.6797 19.1016 65.6797 19.9297C65.6797 20.7578 65.8203 21.4531 66.1016 22.0156C66.3984 22.5781 66.7812 23.0703 67.25 23.4922C67.7344 23.9141 68.2812 24.2734 68.8906 24.5703C69.5 24.8516 70.1328 25.0938 70.7891 25.2969C71.9453 25.625 72.9531 25.8359 73.8125 25.9297C74.6875 26.0234 75.4062 26.1172 75.9688 26.2109C76.5469 26.2891 77.1484 26.3984 77.7734 26.5391C78.3984 26.6797 79.0234 26.8516 79.6484 27.0547C80.2734 27.2422 80.8516 27.4688 81.3828 27.7344C82.5547 28.3281 83.2578 29.0234 83.4922 29.8203ZM80.7969 16.0391C78.7812 14.4453 76.2031 13.6484 73.0625 13.6484C71.1719 13.6484 69.8281 14.1641 69.0312 15.1953C68.75 15.5703 68.6094 16.0156 68.6094 16.5312C68.6094 17.0469 68.7656 17.4922 69.0781 17.8672C69.3906 18.2266 69.7891 18.5469 70.2734 18.8281C70.7578 19.1094 71.2969 19.3516 71.8906 19.5547C72.5 19.7578 73.0938 19.9297 73.6719 20.0703C74.2656 20.2109 74.8125 20.3281 75.3125 20.4219C75.8281 20.5156 76.4297 20.6328 77.1172 20.7734C77.8203 20.9141 78.7422 21.1641 79.8828 21.5234C81.0391 21.8672 82.0938 22.3281 83.0469 22.9062C85.2031 24.25 86.2812 26.0547 86.2812 28.3203C86.2812 30.8203 85.0938 32.8281 82.7188 34.3438C80.5938 35.7031 78.3047 36.3828 75.8516 36.3828C71.7422 36.3828 68.2891 35.1875 65.4922 32.7969V33.5938C65.4922 33.8438 65.5078 34.0859 65.5391 34.3203V34.4141C65.5391 34.7266 65.4297 35.0078 65.2109 35.2578C65.0078 35.5078 64.7344 35.6328 64.3906 35.6328C64.0625 35.6328 63.7656 35.5234 63.5 35.3047C63.25 35.1016 63.1094 34.8438 63.0781 34.5312C63.0469 34.2188 63.0312 33.9062 63.0312 33.5938V32.6094C63.0312 31.3594 63.0703 30.2578 63.1484 29.3047C63.2266 28.3359 63.2734 27.7656 63.2891 27.5938C63.3203 27.4219 63.4453 27.2344 63.6641 27.0312C63.8984 26.8125 64.1875 26.7031 64.5312 26.7031C64.8906 26.7031 65.1797 26.8281 65.3984 27.0781C65.6172 27.3281 65.7266 27.6016 65.7266 27.8984V28.0391C65.6797 28.4609 65.6328 28.9609 65.5859 29.5391C68.3047 32.4453 71.7266 33.8984 75.8516 33.8984C77.6953 33.8984 79.1875 33.5938 80.3281 32.9844C81.0938 32.5781 81.4766 32.0625 81.4766 31.4375C81.4766 30.125 79.375 29.1641 75.1719 28.5547C74.75 28.4922 74.1484 28.4219 73.3672 28.3438C72.6016 28.25 71.5625 28.0156 70.25 27.6406C68.9531 27.25 67.7812 26.7188 66.7344 26.0469C64.4062 24.5469 63.2422 22.5547 63.2422 20.0703C63.2422 17.4297 64.2656 15.2578 66.3125 13.5547C68.1875 11.9766 70.4375 11.1875 73.0625 11.1875C76.4531 11.1875 79.3359 12.0078 81.7109 13.6484C82.3047 12.1797 82.8125 11.3438 83.2344 11.1406C83.4375 11.0469 83.6719 11 83.9375 11C84.2188 11 84.4766 11.125 84.7109 11.375C84.9453 11.6094 85.0625 11.8672 85.0625 12.1484C85.0625 12.4297 84.8828 12.875 84.5234 13.4844C83.4922 15.25 82.8438 17.2031 82.5781 19.3438C82.5312 19.6406 82.3906 19.8906 82.1562 20.0938C81.9219 20.2969 81.6406 20.3984 81.3125 20.3984C80.9844 20.3984 80.7031 20.2734 80.4688 20.0234C80.2344 19.7578 80.1172 19.4688 80.1172 19.1562V18.9688C80.2891 18 80.5156 17.0234 80.7969 16.0391ZM110.961 29.8203C111.18 29.2422 111.289 28.6875 111.289 28.1562C111.289 27.625 111.156 27.1172 110.891 26.6328C110.641 26.1484 110.305 25.7344 109.883 25.3906C109.461 25.0312 108.977 24.7344 108.43 24.5C107.883 24.25 107.32 24.0391 106.742 23.8672C106.164 23.6953 105.594 23.5547 105.031 23.4453C104.469 23.3203 103.914 23.1953 103.367 23.0703C102.836 22.9453 102.227 22.8125 101.539 22.6719C100.867 22.5312 100.188 22.375 99.5 22.2031C98.8281 22.0156 98.1719 21.7891 97.5312 21.5234C96.9062 21.2578 96.3359 20.9375 95.8203 20.5625C94.6953 19.7656 94 18.7188 93.7344 17.4219C93.3438 18.2656 93.1484 19.1016 93.1484 19.9297C93.1484 20.7578 93.2891 21.4531 93.5703 22.0156C93.8672 22.5781 94.25 23.0703 94.7188 23.4922C95.2031 23.9141 95.75 24.2734 96.3594 24.5703C96.9688 24.8516 97.6016 25.0938 98.2578 25.2969C99.4141 25.625 100.422 25.8359 101.281 25.9297C102.156 26.0234 102.875 26.1172 103.438 26.2109C104.016 26.2891 104.617 26.3984 105.242 26.5391C105.867 26.6797 106.492 26.8516 107.117 27.0547C107.742 27.2422 108.32 27.4688 108.852 27.7344C110.023 28.3281 110.727 29.0234 110.961 29.8203ZM108.266 16.0391C106.25 14.4453 103.672 13.6484 100.531 13.6484C98.6406 13.6484 97.2969 14.1641 96.5 15.1953C96.2188 15.5703 96.0781 16.0156 96.0781 16.5312C96.0781 17.0469 96.2344 17.4922 96.5469 17.8672C96.8594 18.2266 97.2578 18.5469 97.7422 18.8281C98.2266 19.1094 98.7656 19.3516 99.3594 19.5547C99.9688 19.7578 100.562 19.9297 101.141 20.0703C101.734 20.2109 102.281 20.3281 102.781 20.4219C103.297 20.5156 103.898 20.6328 104.586 20.7734C105.289 20.9141 106.211 21.1641 107.352 21.5234C108.508 21.8672 109.562 22.3281 110.516 22.9062C112.672 24.25 113.75 26.0547 113.75 28.3203C113.75 30.8203 112.562 32.8281 110.188 34.3438C108.062 35.7031 105.773 36.3828 103.32 36.3828C99.2109 36.3828 95.7578 35.1875 92.9609 32.7969V33.5938C92.9609 33.8438 92.9766 34.0859 93.0078 34.3203V34.4141C93.0078 34.7266 92.8984 35.0078 92.6797 35.2578C92.4766 35.5078 92.2031 35.6328 91.8594 35.6328C91.5312 35.6328 91.2344 35.5234 90.9688 35.3047C90.7188 35.1016 90.5781 34.8438 90.5469 34.5312C90.5156 34.2188 90.5 33.9062 90.5 33.5938V32.6094C90.5 31.3594 90.5391 30.2578 90.6172 29.3047C90.6953 28.3359 90.7422 27.7656 90.7578 27.5938C90.7891 27.4219 90.9141 27.2344 91.1328 27.0312C91.3672 26.8125 91.6562 26.7031 92 26.7031C92.3594 26.7031 92.6484 26.8281 92.8672 27.0781C93.0859 27.3281 93.1953 27.6016 93.1953 27.8984V28.0391C93.1484 28.4609 93.1016 28.9609 93.0547 29.5391C95.7734 32.4453 99.1953 33.8984 103.32 33.8984C105.164 33.8984 106.656 33.5938 107.797 32.9844C108.562 32.5781 108.945 32.0625 108.945 31.4375C108.945 30.125 106.844 29.1641 102.641 28.5547C102.219 28.4922 101.617 28.4219 100.836 28.3438C100.07 28.25 99.0312 28.0156 97.7188 27.6406C96.4219 27.25 95.25 26.7188 94.2031 26.0469C91.875 24.5469 90.7109 22.5547 90.7109 20.0703C90.7109 17.4297 91.7344 15.2578 93.7812 13.5547C95.6562 11.9766 97.9062 11.1875 100.531 11.1875C103.922 11.1875 106.805 12.0078 109.18 13.6484C109.773 12.1797 110.281 11.3438 110.703 11.1406C110.906 11.0469 111.141 11 111.406 11C111.688 11 111.945 11.125 112.18 11.375C112.414 11.6094 112.531 11.8672 112.531 12.1484C112.531 12.4297 112.352 12.875 111.992 13.4844C110.961 15.25 110.312 17.2031 110.047 19.3438C110 19.6406 109.859 19.8906 109.625 20.0938C109.391 20.2969 109.109 20.3984 108.781 20.3984C108.453 20.3984 108.172 20.2734 107.938 20.0234C107.703 19.7578 107.586 19.4688 107.586 19.1562V18.9688C107.758 18 107.984 17.0234 108.266 16.0391ZM138.898 32.5156C139.68 32.4375 140.703 32.3984 141.969 32.3984L142.789 3.17188C141.477 3.23438 140.336 3.3125 139.367 3.40625L138.898 32.5156ZM156.523 32.9375C155.102 30.9688 154.391 27.6094 154.391 22.8594V22.0156C154.391 21.7344 154.406 21.4844 154.438 21.2656C152.859 21.5469 151.789 21.7109 151.227 21.7578C151.164 22.1953 151.133 22.8359 151.133 23.6797C151.133 24.5078 151.203 25.4453 151.344 26.4922C151.5 27.5391 151.781 28.5156 152.188 29.4219C153.078 31.4844 154.523 32.6562 156.523 32.9375ZM144.805 19.0156C145.852 19.2344 147.031 19.3438 148.344 19.3438C149.656 19.3438 150.805 19.2891 151.789 19.1797C152.773 19.0703 153.734 18.8906 154.672 18.6406C155.625 18.3906 156.523 18.0625 157.367 17.6562C158.211 17.2344 158.953 16.7188 159.594 16.1094C160.969 14.75 161.656 13.0469 161.656 11C161.656 7.92188 160.195 5.76562 157.273 4.53125C155.508 3.79688 153.688 3.36719 151.812 3.24219C149.938 3.10156 148.586 3.03125 147.758 3.03125H146.07C145.773 3.03125 145.492 3.04688 145.227 3.07812L144.805 19.0156ZM163.133 26.6562L163.086 25.9297C163.086 25.5703 163.211 25.2812 163.461 25.0625C163.727 24.8438 164.016 24.7344 164.328 24.7344C164.641 24.7344 164.914 24.8438 165.148 25.0625C165.383 25.2656 165.516 25.5234 165.547 25.8359L165.594 26.6562C165.594 29.2344 164.859 31.3281 163.391 32.9375C161.891 34.5938 159.922 35.4219 157.484 35.4219H157.414C153.352 35.3125 150.695 33.1719 149.445 29C148.945 27.3438 148.695 25.4844 148.695 23.4219L148.742 21.8516C147.539 21.8516 146.211 21.7422 144.758 21.5234L144.406 33.6641C144.406 34.0391 144.281 34.3359 144.031 34.5547C143.797 34.7578 143.508 34.8594 143.164 34.8594C139.508 34.8594 136.18 35.0469 133.18 35.4219H133.039C132.68 35.4219 132.383 35.2969 132.148 35.0469C131.914 34.8125 131.797 34.5391 131.797 34.2266C131.797 33.9141 131.891 33.6406 132.078 33.4062C132.281 33.1719 132.602 33.0234 133.039 32.9609C133.492 32.8984 134.016 32.8438 134.609 32.7969C135.219 32.75 135.812 32.7031 136.391 32.6562L136.93 3.75781L133.367 4.46094C133.258 4.53906 133.086 4.57812 132.852 4.57812C132.617 4.57812 132.383 4.45312 132.148 4.20312C131.914 3.95312 131.797 3.67188 131.797 3.35938C131.797 2.73438 132.086 2.33594 132.664 2.16406C135.805 1.11719 140.602 0.59375 147.055 0.59375C150.68 0.78125 153.312 1.0625 154.953 1.4375C156.609 1.8125 157.961 2.24219 159.008 2.72656C160.055 3.19531 160.953 3.80469 161.703 4.55469C163.297 6.11719 164.094 8.26562 164.094 11C164.094 13.2344 163.43 15.2188 162.102 16.9531C160.836 18.6094 159.117 19.7969 156.945 20.5156C156.883 21.2344 156.852 21.875 156.852 22.4375C156.852 22.9844 156.859 23.5547 156.875 24.1484C156.891 24.7422 156.93 25.3906 156.992 26.0938C157.055 26.7969 157.148 27.5156 157.273 28.25C157.414 28.9844 157.594 29.6562 157.812 30.2656C158.328 31.625 159.031 32.3047 159.922 32.3047C161.016 32.3047 161.859 31.5781 162.453 30.125C162.906 29.0469 163.133 27.8906 163.133 26.6562ZM178.086 14.0234C173.977 15.5078 171.922 18.625 171.922 23.375C171.922 26.3594 172.953 28.8594 175.016 30.875C175.656 31.5 176.391 32.0234 177.219 32.4453C175.875 30.4453 175.203 27.7109 175.203 24.2422C175.203 21.7891 175.383 19.9609 175.742 18.7578C176.305 16.8516 177.086 15.2734 178.086 14.0234ZM177.688 23.2344C179.438 23.7812 181.445 24.0547 183.711 24.0547C185.977 24.0547 188.18 23.5781 190.32 22.625V22.2266C190.32 18.4453 189.109 15.8359 186.688 14.3984C185.844 13.8984 184.828 13.5625 183.641 13.3906C179.828 13.8281 177.844 17.1094 177.688 23.2344ZM192.758 22.1797L192.711 23.5391C192.555 24.8359 190.492 25.7578 186.523 26.3047C185.258 26.4766 183.914 26.5625 182.492 26.5625C181.086 26.5625 179.5 26.3203 177.734 25.8359C178.078 29.3828 179.266 31.7812 181.297 33.0312C182.047 33.4844 182.781 33.7109 183.5 33.7109C184.234 33.7109 184.852 33.6641 185.352 33.5703C185.852 33.4609 186.344 33.3125 186.828 33.125C187.922 32.6719 188.688 32.125 189.125 31.4844C189.391 31.1719 189.695 31.0156 190.039 31.0156C190.398 31.0156 190.703 31.1484 190.953 31.4141C191.203 31.6641 191.328 31.9531 191.328 32.2812C191.328 32.5938 191.227 32.8438 191.023 33.0312C190.352 34.0781 189.102 34.9062 187.273 35.5156C183.883 36.625 180.625 36.5312 177.5 35.2344C174.219 33.8906 171.891 31.625 170.516 28.4375C169.828 26.875 169.484 25.1484 169.484 23.2578C169.484 21.3516 169.781 19.625 170.375 18.0781C170.969 16.5156 171.812 15.2031 172.906 14.1406C175.141 11.9531 178.227 10.8594 182.164 10.8594C189.227 11.1562 192.758 14.9297 192.758 22.1797ZM205.414 33.3125C203.336 31.1406 202.297 28.0859 202.297 24.1484C202.297 21.6797 202.703 19.3125 203.516 17.0469C204.312 14.875 205.219 13.4531 206.234 12.7812C201.266 14 198.781 17.6953 198.781 23.8672C198.781 27.5078 200.047 30.2109 202.578 31.9766C203.406 32.5547 204.352 33 205.414 33.3125ZM219.102 19.4375C219.055 19.75 218.906 20.0078 218.656 20.2109C218.422 20.4141 218.148 20.5156 217.836 20.5156C217.523 20.5156 217.25 20.4062 217.016 20.1875C216.797 19.9688 216.68 19.6094 216.664 19.1094C216.648 18.5938 216.5 17.9688 216.219 17.2344C215.938 16.5 215.555 15.8281 215.07 15.2188C213.945 13.8125 212.727 13.1094 211.414 13.1094C209.805 13.1094 208.445 13.7812 207.336 15.125C206.008 16.7344 205.188 19.0391 204.875 22.0391C204.781 22.8359 204.734 23.6719 204.734 24.5469C204.734 25.4062 204.852 26.3828 205.086 27.4766C205.336 28.5703 205.711 29.5469 206.211 30.4062C207.336 32.375 208.906 33.3594 210.922 33.3594C212.422 33.3594 213.797 32.7188 215.047 31.4375C216.188 30.2656 216.945 28.9609 217.32 27.5234C217.492 26.8516 217.891 26.5156 218.516 26.5156C218.859 26.5156 219.148 26.6484 219.383 26.9141C219.633 27.1641 219.758 27.3906 219.758 27.5938C219.758 27.7969 219.719 28.0469 219.641 28.3438C219.578 28.625 219.414 29.0703 219.148 29.6797C218.883 30.2891 218.531 30.8984 218.094 31.5078C217.672 32.1172 217.156 32.7109 216.547 33.2891C215.938 33.8516 215.242 34.3516 214.461 34.7891C212.727 35.7578 210.883 36.2422 208.93 36.2422C206.992 36.2422 205.266 35.9375 203.75 35.3281C202.234 34.7344 200.93 33.8906 199.836 32.7969C197.508 30.5 196.344 27.5234 196.344 23.8672C196.344 19.8047 197.406 16.5156 199.531 14C201.75 11.3594 204.781 10.0391 208.625 10.0391C210.406 10.0391 212.062 10.3984 213.594 11.1172C215.125 11.8203 216.383 12.8828 217.367 14.3047L218.141 9.52344C218.188 9.22656 218.32 8.98438 218.539 8.79688C218.773 8.60938 219.062 8.51562 219.406 8.51562C219.75 8.51562 220.031 8.64844 220.25 8.91406C220.469 9.17969 220.578 9.44531 220.578 9.71094V9.89844L219.102 19.4375ZM232.391 13.8828C229.594 14.9609 227.75 16.9844 226.859 19.9531C226.547 20.9844 226.391 22.1484 226.391 23.4453C226.391 24.7422 226.539 25.9062 226.836 26.9375C227.133 27.9688 227.531 28.875 228.031 29.6562C229 31.1094 230.344 32.1875 232.062 32.8906C230.5 30.7188 229.719 27.5312 229.719 23.3281C229.719 19.125 230.609 15.9766 232.391 13.8828ZM244.32 30.3359C245.055 29.3984 245.609 28.3281 245.984 27.125C246.375 25.9219 246.57 24.8125 246.57 23.7969C246.57 22.7812 246.484 21.8828 246.312 21.1016C246.141 20.3203 245.891 19.5625 245.562 18.8281C245.234 18.0938 244.836 17.4062 244.367 16.7656C243.898 16.125 243.375 15.5625 242.797 15.0781C241.531 14.0625 240.148 13.5547 238.648 13.5547C235.617 13.5547 233.641 15.3359 232.719 18.8984C232.375 20.2109 232.203 21.4297 232.203 22.5547C232.203 23.6641 232.234 24.6094 232.297 25.3906C232.359 26.1562 232.469 26.9219 232.625 27.6875C232.781 28.4375 232.992 29.1641 233.258 29.8672C233.523 30.5703 233.867 31.1875 234.289 31.7188C235.211 32.875 236.391 33.4531 237.828 33.4531C239.281 33.4531 240.539 33.1719 241.602 32.6094C242.68 32.0312 243.586 31.2734 244.32 30.3359ZM249.008 23.5391C249.008 25.3359 248.672 27.0156 248 28.5781C247.328 30.1406 246.422 31.4844 245.281 32.6094C242.859 34.9688 239.922 36.1484 236.469 36.1484C232.672 36.1484 229.633 34.9922 227.352 32.6797C225.086 30.3828 223.953 27.2969 223.953 23.4219C223.953 19.75 225.156 16.7031 227.562 14.2812C229.938 11.875 232.906 10.6719 236.469 10.6719C240.094 10.6719 243.109 11.9375 245.516 14.4688C247.844 16.9062 249.008 19.9297 249.008 23.5391ZM262.578 14.6562C261.984 14.75 260.906 14.7969 259.344 14.7969H259.156V32.0234C259.453 31.9922 259.742 31.9766 260.023 31.9766C260.023 31.9766 260.875 31.9766 262.578 31.9766V14.6562ZM275.68 19.8594C275.773 19.6562 275.82 19.375 275.82 19.0156C275.82 18.6562 275.648 18.3125 275.305 17.9844C274.977 17.6406 274.57 17.4688 274.086 17.4688C273.602 17.4688 273.188 17.6406 272.844 17.9844C272.516 18.3125 272.352 18.6562 272.352 19.0156C272.352 19.375 272.398 19.6562 272.492 19.8594C272.586 20.0625 272.711 20.25 272.867 20.4219C273.195 20.7656 273.602 20.9375 274.086 20.9375C274.82 20.9375 275.352 20.5781 275.68 19.8594ZM265.062 14.8906C266.625 12.7188 268.688 11.6328 271.25 11.6328C273.375 11.6953 275.094 12.3438 276.406 13.5781C277.75 14.8125 278.422 16.4297 278.422 18.4297C278.422 19.7578 278.031 20.9062 277.25 21.875C276.438 22.875 275.383 23.375 274.086 23.375C272.93 23.375 271.945 22.9688 271.133 22.1562C270.32 21.3438 269.914 20.3594 269.914 19.2031C269.914 18.0625 270.32 17.0781 271.133 16.25C271.945 15.4062 272.93 14.9844 274.086 14.9844C274.164 14.9844 274.234 14.9922 274.297 15.0078C274.375 15.0234 274.453 15.0312 274.531 15.0312C273.703 14.3906 272.727 14.0703 271.602 14.0703C270.477 14.0703 269.586 14.2578 268.93 14.6328C268.273 14.9922 267.711 15.4531 267.242 16.0156C266.789 16.5625 266.422 17.1641 266.141 17.8203C265.859 18.4609 265.641 19.0625 265.484 19.625C265.203 20.5781 265.062 21.3047 265.062 21.8047L265.016 32.2109C265.562 32.2578 266.109 32.3281 266.656 32.4219C267.219 32.5156 267.719 32.6094 268.156 32.7031C268.969 32.8594 269.375 33.2734 269.375 33.9453C269.375 34.2891 269.242 34.5781 268.977 34.8125C268.711 35.0312 268.43 35.1406 268.133 35.1406H267.898C265.289 34.6562 262.953 34.4141 260.891 34.4141C258.859 34.4141 256.539 34.6562 253.93 35.1406H253.695C253.336 35.1406 253.047 35.0234 252.828 34.7891C252.609 34.5391 252.5 34.2656 252.5 33.9688C252.5 33.2969 252.82 32.875 253.461 32.7031C254.008 32.6094 254.555 32.5156 255.102 32.4219C255.648 32.3281 256.188 32.2578 256.719 32.2109V14.75C254.656 14.6562 253.453 14.5391 253.109 14.3984C252.797 14.3672 252.539 14.2422 252.336 14.0234C252.148 13.7891 252.055 13.5 252.055 13.1562C252.055 12.7969 252.188 12.5078 252.453 12.2891C252.734 12.0703 253.016 11.9609 253.297 11.9609H253.461C253.57 12.0703 254.398 12.1641 255.945 12.2422C257.508 12.3047 258.656 12.3359 259.391 12.3359C261.125 12.3359 262.266 12.2734 262.812 12.1484C263.359 12.0234 263.75 11.9609 263.984 11.9609C264.234 11.9609 264.477 12.0938 264.711 12.3594C264.945 12.6094 265.062 12.8906 265.062 13.2031V14.8906ZM298.953 17.3281C298.516 16.0156 297.625 14.9766 296.281 14.2109C295.109 13.5391 293.883 13.2031 292.602 13.2031C291.32 13.2031 290.266 13.375 289.438 13.7188C288.609 14.0469 287.883 14.5 287.258 15.0781C286.633 15.6406 286.094 16.3047 285.641 17.0703C285.203 17.8203 284.844 18.6094 284.562 19.4375C284.031 21.0312 283.766 22.5703 283.766 24.0547C283.781 25.5234 283.938 26.7891 284.234 27.8516C284.547 28.8984 285 29.8281 285.594 30.6406C286.922 32.4531 288.664 33.3594 290.82 33.3594C292.68 33.3594 294.328 32.4922 295.766 30.7578C296.844 29.4297 297.695 27.75 298.32 25.7188C298.836 24.0156 299.047 22.8672 298.953 22.2734V17.3281ZM301.438 32.9844C302.531 32.75 303.664 32.5938 304.836 32.5156V3.52344C304.039 3.64844 302.969 3.71094 301.625 3.71094H301.438V32.9844ZM297.547 1.0625C298.109 1.10938 298.75 1.15625 299.469 1.20312C300.188 1.23438 301.156 1.25 302.375 1.25C303.594 1.25 304.734 1.125 305.797 0.875H306.102C306.461 0.875 306.75 1 306.969 1.25C307.188 1.48438 307.297 1.75781 307.297 2.07031V32.3516H307.766C308.859 32.3516 309.625 32.375 310.062 32.4219C310.516 32.4688 310.844 32.6094 311.047 32.8438C311.266 33.0781 311.375 33.3672 311.375 33.7109C311.375 34.0547 311.234 34.3438 310.953 34.5781C310.688 34.7969 310.414 34.9062 310.133 34.9062H310.039C309.258 34.8438 308.43 34.8125 307.555 34.8125C306.695 34.8125 305.828 34.8594 304.953 34.9531C304.078 35.0469 303.312 35.1484 302.656 35.2578C302.016 35.3828 301.5 35.4922 301.109 35.5859C300.734 35.6797 300.531 35.7344 300.5 35.75C300.469 35.7656 300.422 35.7734 300.359 35.7734H300.195C299.836 35.7734 299.539 35.6406 299.305 35.375C299.07 35.125 298.953 34.8438 298.953 34.5312V30.5469C297.797 32.9531 295.969 34.5781 293.469 35.4219C292.641 35.6875 291.625 35.8203 290.422 35.8203C289.234 35.8203 288.055 35.5156 286.883 34.9062C285.711 34.2969 284.719 33.4844 283.906 32.4688C282.219 30.375 281.359 27.75 281.328 24.5938C281.328 20.8594 282.234 17.6797 284.047 15.0547C286 12.1953 288.742 10.7656 292.273 10.7656C294.93 10.7656 297.156 11.5312 298.953 13.0625V3.61719C298.953 3.61719 297.766 3.51562 295.391 3.3125C295.078 3.26562 294.812 3.125 294.594 2.89062C294.391 2.65625 294.289 2.375 294.289 2.04688C294.289 1.71875 294.414 1.44531 294.664 1.22656C294.93 0.992188 295.219 0.875 295.531 0.875H295.672C295.688 0.875 295.867 0.898438 296.211 0.945312C296.555 0.976562 297 1.01562 297.547 1.0625ZM334.648 29.8203C334.867 29.2422 334.977 28.6875 334.977 28.1562C334.977 27.625 334.844 27.1172 334.578 26.6328C334.328 26.1484 333.992 25.7344 333.57 25.3906C333.148 25.0312 332.664 24.7344 332.117 24.5C331.57 24.25 331.008 24.0391 330.43 23.8672C329.852 23.6953 329.281 23.5547 328.719 23.4453C328.156 23.3203 327.602 23.1953 327.055 23.0703C326.523 22.9453 325.914 22.8125 325.227 22.6719C324.555 22.5312 323.875 22.375 323.188 22.2031C322.516 22.0156 321.859 21.7891 321.219 21.5234C320.594 21.2578 320.023 20.9375 319.508 20.5625C318.383 19.7656 317.688 18.7188 317.422 17.4219C317.031 18.2656 316.836 19.1016 316.836 19.9297C316.836 20.7578 316.977 21.4531 317.258 22.0156C317.555 22.5781 317.938 23.0703 318.406 23.4922C318.891 23.9141 319.438 24.2734 320.047 24.5703C320.656 24.8516 321.289 25.0938 321.945 25.2969C323.102 25.625 324.109 25.8359 324.969 25.9297C325.844 26.0234 326.562 26.1172 327.125 26.2109C327.703 26.2891 328.305 26.3984 328.93 26.5391C329.555 26.6797 330.18 26.8516 330.805 27.0547C331.43 27.2422 332.008 27.4688 332.539 27.7344C333.711 28.3281 334.414 29.0234 334.648 29.8203ZM331.953 16.0391C329.938 14.4453 327.359 13.6484 324.219 13.6484C322.328 13.6484 320.984 14.1641 320.188 15.1953C319.906 15.5703 319.766 16.0156 319.766 16.5312C319.766 17.0469 319.922 17.4922 320.234 17.8672C320.547 18.2266 320.945 18.5469 321.43 18.8281C321.914 19.1094 322.453 19.3516 323.047 19.5547C323.656 19.7578 324.25 19.9297 324.828 20.0703C325.422 20.2109 325.969 20.3281 326.469 20.4219C326.984 20.5156 327.586 20.6328 328.273 20.7734C328.977 20.9141 329.898 21.1641 331.039 21.5234C332.195 21.8672 333.25 22.3281 334.203 22.9062C336.359 24.25 337.438 26.0547 337.438 28.3203C337.438 30.8203 336.25 32.8281 333.875 34.3438C331.75 35.7031 329.461 36.3828 327.008 36.3828C322.898 36.3828 319.445 35.1875 316.648 32.7969V33.5938C316.648 33.8438 316.664 34.0859 316.695 34.3203V34.4141C316.695 34.7266 316.586 35.0078 316.367 35.2578C316.164 35.5078 315.891 35.6328 315.547 35.6328C315.219 35.6328 314.922 35.5234 314.656 35.3047C314.406 35.1016 314.266 34.8438 314.234 34.5312C314.203 34.2188 314.188 33.9062 314.188 33.5938V32.6094C314.188 31.3594 314.227 30.2578 314.305 29.3047C314.383 28.3359 314.43 27.7656 314.445 27.5938C314.477 27.4219 314.602 27.2344 314.82 27.0312C315.055 26.8125 315.344 26.7031 315.688 26.7031C316.047 26.7031 316.336 26.8281 316.555 27.0781C316.773 27.3281 316.883 27.6016 316.883 27.8984V28.0391C316.836 28.4609 316.789 28.9609 316.742 29.5391C319.461 32.4453 322.883 33.8984 327.008 33.8984C328.852 33.8984 330.344 33.5938 331.484 32.9844C332.25 32.5781 332.633 32.0625 332.633 31.4375C332.633 30.125 330.531 29.1641 326.328 28.5547C325.906 28.4922 325.305 28.4219 324.523 28.3438C323.758 28.25 322.719 28.0156 321.406 27.6406C320.109 27.25 318.938 26.7188 317.891 26.0469C315.562 24.5469 314.398 22.5547 314.398 20.0703C314.398 17.4297 315.422 15.2578 317.469 13.5547C319.344 11.9766 321.594 11.1875 324.219 11.1875C327.609 11.1875 330.492 12.0078 332.867 13.6484C333.461 12.1797 333.969 11.3438 334.391 11.1406C334.594 11.0469 334.828 11 335.094 11C335.375 11 335.633 11.125 335.867 11.375C336.102 11.6094 336.219 11.8672 336.219 12.1484C336.219 12.4297 336.039 12.875 335.68 13.4844C334.648 15.25 334 17.2031 333.734 19.3438C333.688 19.6406 333.547 19.8906 333.312 20.0938C333.078 20.2969 332.797 20.3984 332.469 20.3984C332.141 20.3984 331.859 20.2734 331.625 20.0234C331.391 19.7578 331.273 19.4688 331.273 19.1562V18.9688C331.445 18 331.672 17.0234 331.953 16.0391Z" fill="black"/>
</svg>
