<svg height="60" width="60" xmlns="http://www.w3.org/2000/svg"><g fill="#000" fill-rule="evenodd"><path d="M50.16 24.029a1 1 0 0 0-.732 1.209c.381 1.559.573 3.157.572 4.762a1 1 0 0 0 2 0 21.949 21.949 0 0 0-.631-5.238 1 1 0 0 0-1.209-.733zM49.875 20.57A22.13 22.13 0 0 0 30 8a1 1 0 0 0 0 2 20.116 20.116 0 0 1 18.068 11.43 1 1 0 1 0 1.807-.86zM23.272 53.04a23.964 23.964 0 0 1-17.1-20.159 1 1 0 0 0-1.986.238A25.966 25.966 0 0 0 22.712 54.96a1 1 0 1 0 .56-1.92zM32.881 53.828a24.249 24.249 0 0 1-5.762 0 1 1 0 0 0-.238 1.986c2.072.248 4.166.248 6.238 0a1 1 0 0 0-.238-1.986z"/><path d="M41.441 6.655a1 1 0 0 0-.882 1.795A23.877 23.877 0 0 1 54 30a1 1 0 0 0 2 0A25.865 25.865 0 0 0 41.441 6.655zM30 6c1.286 0 2.57.103 3.841.307a1 1 0 0 0 .318-1.975A26.136 26.136 0 0 0 30 4a1 1 0 0 0 0 2z"/><path d="M30 0C13.431 0 0 13.431 0 30c0 16.569 13.431 30 30 30 16.569 0 30-13.431 30-30C59.981 13.44 46.56.019 30 0zm0 58C14.536 58 2 45.464 2 30S14.536 2 30 2s28 12.536 28 28c-.018 15.457-12.543 27.982-28 28z" fill-rule="nonzero"/><path d="M30 19c-6.075 0-11 4.925-11 11s4.925 11 11 11 11-4.925 11-11c-.007-6.072-4.928-10.993-11-11zm0 20a9 9 0 1 1 9-9 9.01 9.01 0 0 1-9 9z" fill-rule="nonzero"/><path d="M30 26a4 4 0 1 0 0 8 4 4 0 0 0 0-8zm0 6a2 2 0 1 1 0-4 2 2 0 0 1 0 4z" fill-rule="nonzero"/></g></svg>